# xmcd
#
# Track frame offsets:
#	150
#	12416
#	26407
#	38255
#	52099
#	64263
#	78628
#	92764
#	103506
#	115886
#	129166
#	142258
#	155485
#	164883
#	176436
#	189884
#	200001
#	212483
#	222903
#	234954
#	246866
#	259475
#	272618
#	285387
#	297637
#	308790
#	322251
#	332709
#	344745
#	356633
#	369717
#
# Disc length: 5088 seconds
#
# Revision: 1
# Processed by: cddbd v1.5.2PL0 Copyright (c) Steve Scherf et al.
# Submitted via: audiograbber 1.83.01
#
DISCID=eb13de1f
DTITLE=The Chuck Wagon Gang - Complete Recordings 1936-1955 - Disc 4
DYEAR=2014
DGENRE=Gospel
TTITLE0=Travelling On
TTITLE1=Somebody Called My Name
TTITLE2=Camping In Canaan's Land
TTITLE3=Help Me To Be Ready, Lord
TTITLE4=He Said If I Be Lifted Up
TTITLE5=I'm Telling The World About His Love
TTITLE6=Is Your Name In The Book Of Life
TTITLE7=I've Changed My Mind
TTITLE8=Way Up In Glory
TTITLE9=Walk And Taik With Jesus
TTITLE10=Get A Touch Of Heaven In Your Soul
TTITLE11=Whisper My Name In Prayer
TTITLE12=Way Up In Glory
TTITLE13=Blessed Light, Shine On
TTITLE14=I Know My Saviour Cares
TTITLE15=All God's Children Rise And Shine
TTITLE16=After Awhile
TTITLE17=Just A Veil Between
TTITLE18=We'll Be Happy All The Time
TTITLE19=At The Dawning
TTITLE20=When He Calls I'll Fly Away
TTITLE21=Hide Me, Rock Of Ages
TTITLE22=There's Glory On The Winning Side
TTITLE23=Love Leads The Way
TTITLE24=Home Of The Soul
TTITLE25=Jesus Calls For Workers
TTITLE26=I'm Finding New Joy
TTITLE27=God Put A Rainbow In The Cloud
TTITLE28=A Soul Winner For Jesus
TTITLE29=Angels Rock Me To Sleep
TTITLE30=As The Life Of A Flower
EXTD=
EXTT0=
EXTT1=
EXTT2=
EXTT3=
EXTT4=
EXTT5=
EXTT6=
EXTT7=
EXTT8=
EXTT9=
EXTT10=
EXTT11=
EXTT12=
EXTT13=
EXTT14=
EXTT15=
EXTT16=
EXTT17=
EXTT18=
EXTT19=
EXTT20=
EXTT21=
EXTT22=
EXTT23=
EXTT24=
EXTT25=
EXTT26=
EXTT27=
EXTT28=
EXTT29=
EXTT30=
PLAYORDER=
